<?xml version="1.0" encoding="utf-8"?>
<!-- Generator: Adobe Illustrator 21.1.0, SVG Export Plug-In . SVG Version: 6.00 Build 0)  -->
<svg version="1.0" id="Layer_1" xmlns="http://www.w3.org/2000/svg" xmlns:xlink="http://www.w3.org/1999/xlink" x="0px" y="0px"
	 viewBox="0 0 130.6 73.4" style="enable-background:new 0 0 130.6 73.4;" xml:space="preserve">
<path d="M114.1,13v37c0,0.9-0.7,1.7-1.7,1.7c-0.9,0-1.7-0.7-1.8-1.6c0,0,0-0.1,0-0.1V16.4H22.9l0,32.1h28.9c2.9,0,5.3-2.3,5.2-5.1
	c0-1.3-0.5-2.5-1.5-3.5c-0.9-0.9-2.2-1.4-3.5-1.4H34.9c-1,0-1.7-0.8-1.7-1.7c0-0.9,0.8-1.6,1.7-1.6h16.8v0c1.9,0,3.4-1.5,3.4-3.3
	c0-1.7-1.5-3.1-3.4-3.2H39.3c-1,0-1.8-0.7-1.8-1.7c0-0.9,0.8-1.7,1.8-1.7h12.4c3.8,0,6.8,3,6.8,6.5c0,1.7-0.7,3.4-1.9,4.6
	c0,0,0,0,0,0c0.4,0.3,0.9,0.6,1.3,1c1.7,1.5,2.6,3.7,2.6,5.9c0,4.6-3.8,8.3-8.7,8.4H19.1V13H114.1z"/>
<path d="M67.8,37.5c-0.7,0-1.5-0.1-2.2-0.2c-0.5-0.2-0.9-0.4-1.2-0.8c-0.4-0.3-0.6-0.8-0.8-1.2c-0.2-0.6-0.2-1.2-0.2-1.8v-6h2.2v5.9
	c0,0.3,0,0.5,0,0.7c0,0.2,0,0.3,0.1,0.5c0.1,0.2,0.1,0.4,0.3,0.6c0.2,0.2,0.5,0.4,0.8,0.5c0.4,0.1,0.8,0.2,1.3,0.1h2.6v1.7H67.8z"/>
<path d="M76.2,27.4h2.4l4.5,10h-2.5l-1-2.4h-4.6l-0.9,2.4h-2.3L76.2,27.4z M77.3,29.5l-1.5,3.8h3.1L77.3,29.5z"/>
<polygon points="85.3,27.4 88.1,27.4 92.4,34.7 92.3,27.4 94.5,27.4 94.5,37.5 92,37.5 87.5,29.9 87.6,37.5 85.3,37.5 "/>
<polygon points="98.2,27.4 100.4,27.4 100.4,32.3 104.5,27.4 107.1,27.4 102.9,32.3 107.2,37.5 104.4,37.5 100.4,32.5 100.4,37.5 
	98.2,37.5 "/>
<path d="M64.4,49.1c0.2,1,1.2,1.7,2.2,1.6c1.3,0,2.3-0.5,2.3-1.7c0-2.6-5.3-1.7-5.3-4.7c0-1.1,1-2.3,3.2-2.3c0.7,0,1.4,0.1,2.1,0.4
	c0,0-0.1,0.4-0.3,0.9c-0.5-0.2-1.1-0.4-1.7-0.4c-1.3,0-2.1,0.5-2.1,1.4c0,2,5.4,1.3,5.4,4.5c0,1.5-1,2.7-3.4,2.7
	c-2.2,0-3.3-1.3-3.3-2.5L64.4,49.1z"/>
<polygon points="74.4,51.6 74.4,42.3 75.4,42.3 75.4,50.7 79.5,50.7 79.5,51.6 "/>
<path d="M88.7,51.6l-1-3h-2.9l-0.9,3h-1.1l2.9-9.3h1.2l3,9.3H88.7z M86.3,43.8l-1.2,3.8h2.4L86.3,43.8z"/>
<polygon points="94.9,51.6 94.9,43.2 92.6,43.2 92.6,42.3 98.3,42.3 98.3,43.2 95.9,43.2 95.9,51.6 "/>
<polygon points="102.4,51.6 102.4,42.3 107.1,42.3 107.1,43.2 103.4,43.2 103.4,46.1 105.9,46.1 105.6,47 103.4,47 103.4,50.7 
	107.1,50.7 107.1,51.6 "/>
<path d="M19.1,60.2v-4.7H22L21.9,56l-1.3-0.2c-0.2,0-0.5,0-0.8,0.1v1.7h1.6v0.3h-1.6v2.1l2.2-0.2l-0.1,0.5H19.1z"/>
<polygon points="25.6,59.1 27.2,55.5 27.9,55.5 28.2,60.2 27.5,60.2 27.3,56.1 27.3,56.1 25.4,60.2 25.3,60.2 23.6,56.3 23.6,56.3 
	23.4,60.2 23,60.2 23.3,55.5 24,55.5 "/>
<path d="M32.6,56.7c0,0.5-0.2,0.8-0.5,1c-0.3,0.2-0.8,0.3-1.4,0.3h-0.6v2.1h-0.7v-4.7H31c0.5,0,0.9,0.1,1.2,0.3
	C32.5,56,32.6,56.3,32.6,56.7 M30.2,57.9h0.6c0.2,0,0.4,0,0.6-0.1c0.2-0.1,0.3-0.2,0.3-0.3c0.1-0.2,0.2-0.5,0.2-0.7
	c0-0.1,0-0.2-0.1-0.4c-0.1-0.3-0.4-0.5-0.7-0.6c-0.3,0-0.7,0-1,0.1V57.9z"/>
<path d="M35.5,55.4c0.6,0,1.1,0.2,1.5,0.6c0.4,0.4,0.6,1,0.6,1.7c0,0.5-0.1,0.9-0.2,1.2c-0.2,0.3-0.4,0.6-0.6,0.8
	c-0.5,0.4-1.1,0.6-1.7,0.6c-0.6,0-1.1-0.2-1.5-0.6c-0.4-0.4-0.6-1-0.6-1.7c0-0.4,0.1-0.7,0.2-1c0.1-0.3,0.2-0.5,0.4-0.7
	c0.2-0.2,0.4-0.3,0.6-0.5C34.6,55.5,35,55.4,35.5,55.4 M34.6,59.8C34.8,60,35,60,35.3,60c0.3,0,0.5-0.1,0.7-0.2
	c0.2-0.1,0.4-0.3,0.5-0.5c0.2-0.4,0.4-0.9,0.4-1.4c0-0.6-0.1-1.1-0.4-1.5c-0.3-0.4-0.7-0.6-1.4-0.6c-0.5,0.2-0.8,0.4-1.1,0.8
	c-0.2,0.4-0.4,0.8-0.4,1.3c0,0.6,0.1,1.1,0.4,1.5C34.2,59.6,34.4,59.7,34.6,59.8"/>
<polygon points="43.6,55.5 44,55.5 42.2,60.3 42.1,60.3 41,57.4 39.9,60.3 39.8,60.3 38,55.5 38.8,55.5 40,59.3 40.8,57 40.3,55.5 
	41,55.5 42.3,59.3 "/>
<path d="M44.7,60.2v-4.7h2.9L47.5,56l-1.3-0.2c-0.2,0-0.5,0-0.8,0.1v1.7h1.6v0.3h-1.6v2.1l2.2-0.2l-0.1,0.5H44.7z"/>
<path d="M49.4,57.9v2.2h-0.7v-4.7h1.5c0.5,0,0.9,0.1,1.2,0.3c0.3,0.2,0.5,0.5,0.5,0.8c0,0.3-0.1,0.6-0.4,0.8c-0.2,0.2-0.6,0.3-1,0.4
	l1.9,2.3l-0.8,0.1l-1.7-2.3H49.4z M49.4,57.7h0.5c0.9,0,1.3-0.3,1.3-1c0-0.1,0-0.2-0.1-0.4c-0.1-0.3-0.3-0.5-0.7-0.6
	c-0.3,0-0.6,0-1,0.1V57.7z"/>
<path d="M53.2,60.2v-4.7h2.9L56,56l-1.3-0.2c-0.2,0-0.5,0-0.8,0.1v1.7h1.6v0.3h-1.6v2.1l2.2-0.2l-0.1,0.5H53.2z"/>
<path d="M57.3,60.2v-4.7h1.4c0.6,0,1.1,0.1,1.5,0.4c0.2,0.1,0.5,0.3,0.6,0.5c0.2,0.2,0.3,0.4,0.4,0.7c0.1,0.3,0.2,0.6,0.2,0.9
	c0,0.5-0.1,0.9-0.4,1.3c-0.5,0.6-1.2,0.9-2.2,0.9H57.3z M58.6,59.9c0.6,0,1.1-0.2,1.5-0.5c0.4-0.4,0.5-0.9,0.5-1.6
	c0-0.5-0.1-1-0.4-1.4c-0.3-0.4-0.7-0.6-1.1-0.7c-0.4,0-0.8,0-1.1,0.1v4C58.1,59.9,58.3,59.9,58.6,59.9"/>
<path d="M64.1,60.2v-4.7h1.4c0.5,0,1,0.1,1.3,0.3c0.3,0.2,0.5,0.5,0.5,0.8c0,0.3-0.1,0.5-0.3,0.7c-0.2,0.2-0.4,0.3-0.8,0.4
	c0.4,0.1,0.8,0.2,1,0.4c0.2,0.2,0.3,0.4,0.3,0.7c0,0.2-0.1,0.5-0.2,0.6c-0.1,0.2-0.3,0.3-0.5,0.4c-0.4,0.2-0.8,0.3-1.2,0.3H64.1z
	 M64.8,57.6h0.5c0.4,0,0.7-0.1,0.9-0.3c0.2-0.2,0.3-0.4,0.3-0.7c0-0.2-0.1-0.4-0.2-0.5c-0.1-0.2-0.3-0.3-0.6-0.4
	c-0.3,0-0.6,0-0.9,0.1V57.6z M64.8,57.8v2c0.2,0,0.4,0.1,0.7,0.1c0.3,0,0.6-0.1,0.9-0.3c0.2-0.2,0.4-0.4,0.4-0.7
	c0-0.3-0.1-0.6-0.4-0.8c-0.3-0.2-0.6-0.3-1-0.3H64.8z"/>
<polygon points="70.5,60.2 69.8,60.2 69.8,58.4 68.2,55.5 69,55.5 70.3,58.2 71.6,55.5 71.9,55.5 70.5,58.4 "/>
<rect x="74.5" y="55.5" width="0.7" height="4.7"/>
<polygon points="80,60.2 79.9,60.2 76.8,56.4 76.8,56.4 76.8,60.2 76.4,60.2 76.4,55.5 77,55.5 79.7,58.9 79.7,58.9 79.7,55.5 
	80,55.5 "/>
<polygon points="84.9,60.2 84.8,60.2 81.7,56.4 81.6,56.4 81.6,60.2 81.3,60.2 81.3,55.5 81.9,55.5 84.6,58.9 84.6,58.9 84.6,55.5 
	84.9,55.5 "/>
<path d="M88.4,55.4c0.6,0,1.1,0.2,1.5,0.6c0.4,0.4,0.6,1,0.6,1.7c0,0.5-0.1,0.9-0.2,1.2c-0.2,0.3-0.4,0.6-0.6,0.8
	c-0.5,0.4-1.1,0.6-1.7,0.6c-0.6,0-1.1-0.2-1.5-0.6c-0.4-0.4-0.6-1-0.6-1.7c0-0.4,0.1-0.7,0.2-1c0.1-0.3,0.2-0.5,0.4-0.7
	c0.2-0.2,0.4-0.3,0.6-0.5C87.4,55.5,87.9,55.4,88.4,55.4 M87.4,59.8c0.2,0.1,0.5,0.2,0.7,0.2s0.5-0.1,0.7-0.2
	c0.2-0.1,0.4-0.3,0.5-0.5c0.2-0.4,0.4-0.9,0.4-1.4c0-0.6-0.1-1.1-0.4-1.5c-0.3-0.4-0.7-0.6-1.4-0.6c-0.5,0.2-0.8,0.4-1.1,0.8
	c-0.2,0.4-0.4,0.8-0.4,1.3c0,0.6,0.1,1.1,0.4,1.5C87,59.6,87.2,59.7,87.4,59.8"/>
<polygon points="92.9,60.3 90.8,55.5 91.6,55.5 93.2,59.3 94.6,55.5 94.9,55.5 93.1,60.3 "/>
<path d="M94.9,60.2l2.1-4.8h0.1l2.1,4.8h-0.8l-0.5-1.3h-2.1l-0.5,1.3H94.9z M95.9,58.6h1.9l-0.9-2.3L95.9,58.6z"/>
<path d="M101.2,60.2h-0.7v-4.3c-0.2,0-0.3-0.1-0.5-0.1L99,56l0-0.5h3.7l0,0.5l-1-0.2c-0.2,0-0.3,0-0.5,0.1V60.2z"/>
<rect x="103.4" y="55.5" width="0.7" height="4.7"/>
<path d="M107.5,55.4c0.6,0,1.1,0.2,1.5,0.6c0.4,0.4,0.6,1,0.6,1.7c0,0.5-0.1,0.9-0.2,1.2c-0.2,0.3-0.4,0.6-0.6,0.8
	c-0.5,0.4-1.1,0.6-1.7,0.6c-0.6,0-1.1-0.2-1.5-0.6c-0.4-0.4-0.6-1-0.6-1.7c0-0.4,0.1-0.7,0.2-1c0.1-0.3,0.2-0.5,0.4-0.7
	c0.2-0.2,0.4-0.3,0.6-0.5C106.5,55.5,107,55.4,107.5,55.4 M106.5,59.8c0.2,0.1,0.5,0.2,0.7,0.2s0.5-0.1,0.7-0.2
	c0.2-0.1,0.4-0.3,0.5-0.5c0.2-0.4,0.4-0.9,0.4-1.4c0-0.6-0.1-1.1-0.4-1.5c-0.3-0.4-0.7-0.6-1.4-0.6c-0.5,0.2-0.8,0.4-1.1,0.8
	c-0.2,0.4-0.4,0.8-0.4,1.3c0,0.6,0.1,1.1,0.4,1.5C106.2,59.6,106.3,59.7,106.5,59.8"/>
<polygon points="114.1,60.2 114,60.2 110.8,56.4 110.8,56.4 110.8,60.2 110.5,60.2 110.5,55.5 111,55.5 113.8,58.9 113.8,58.9 
	113.8,55.5 114.1,55.5 "/>
</svg>
