<svg xmlns="http://www.w3.org/2000/svg" width="70.517" height="52.729" viewBox="0 0 70.517 52.729"><path d="M155.88,60.711v50.464a2.2,2.2,0,1,1-4.4,0V65.237H90.185l-.043,43.683h37.013a6.814,6.814,0,0,0,6.714-6.9,6.559,6.559,0,0,0-1.934-4.712,6.7,6.7,0,0,0-4.487-1.92H105.6a2.264,2.264,0,0,1,0-4.526h21.559v-.007a4.394,4.394,0,0,0,0-8.785H111.268a2.264,2.264,0,0,1,0-4.526h15.888a8.813,8.813,0,0,1,8.684,8.914,9,9,0,0,1-2.493,6.247l.039.034a10.153,10.153,0,0,1,1.6,1.3,11.11,11.11,0,0,1,3.286,7.977,11.281,11.281,0,0,1-11.118,11.419H85.363V60.711Z" transform="translate(-85.363 -60.711)"/></svg>