<svg xmlns="http://www.w3.org/2000/svg" width="129" height="52.729" viewBox="0 0 129 52.729"><defs><style>.a{fill:#fff;}</style></defs><g transform="translate(-653 -370)"><g transform="translate(653 370)"><g transform="translate(0 0)"><g transform="translate(0 0)"><path class="a" d="M139.858,6.685V57.151a2.219,2.219,0,1,1-4.436,0V11.211H15.715L15.673,54.9H52.957A6.84,6.84,0,0,0,59.721,48a6.543,6.543,0,0,0-1.95-4.713,6.79,6.79,0,0,0-4.52-1.921H31.24a2.264,2.264,0,0,1,0-4.526H52.957v-.008a4.393,4.393,0,0,0,0-8.785h-16a2.263,2.263,0,0,1,0-4.526h16A8.845,8.845,0,0,1,61.7,32.433,8.963,8.963,0,0,1,59.19,38.68a.115.115,0,0,1,.042.035,10.294,10.294,0,0,1,1.613,1.3A11.076,11.076,0,0,1,64.155,48a11.319,11.319,0,0,1-11.2,11.417h-42.1V6.685Z" transform="translate(-10.858 -6.685)"/></g><g transform="translate(64.835 19.632)"><path class="a" d="M51.106,31.6a8.756,8.756,0,0,1-2.816-.333A3.835,3.835,0,0,1,46.7,30.216a4.169,4.169,0,0,1-.991-1.645,8.616,8.616,0,0,1-.29-2.508V17.926h2.854v8.035q0,.579.018,1a6.514,6.514,0,0,0,.076.683,2.108,2.108,0,0,0,.37.777,2.486,2.486,0,0,0,.995.7,5.572,5.572,0,0,0,1.632.2H54.7V31.6Z" transform="translate(-45.417 -17.926)"/><path class="a" d="M58.848,17.926h3.035L67.649,31.6H64.48l-1.242-3.243H57.36L56.155,31.6H53.139Zm1.4,2.741-1.963,5.244H62.31Z" transform="translate(-42.227 -17.926)"/><path class="a" d="M65.452,17.926h3.6l5.528,9.825-.133-9.825h2.912V31.6h-3.3L68.23,21.265,68.363,31.6H65.452Z" transform="translate(-37.141 -17.926)"/><path class="a" d="M77.194,17.926H80.03v6.562l5.339-6.562h3.394L83.348,24.6l5.471,7H85.188L80.03,24.8v6.8H77.194Z" transform="translate(-32.29 -17.926)"/></g><g transform="translate(64.862 39.644)"><path class="a" d="M46.8,39.018a2.7,2.7,0,0,0,2.9,2.248c1.632,0,2.938-.743,2.938-2.3,0-3.552-6.87-2.284-6.87-6.38,0-1.523,1.269-3.119,4.078-3.119a5.488,5.488,0,0,1,2.647.544c0,.018-.181.579-.4,1.232a5.464,5.464,0,0,0-2.211-.489c-1.723,0-2.756.725-2.737,1.922.054,2.665,6.906,1.83,6.906,6.164,0,2.066-1.232,3.7-4.333,3.7-2.809,0-4.224-1.813-4.279-3.427Z" transform="translate(-45.436 -29.464)"/><path class="a" d="M55.519,42.283V29.592h1.3V41.1h5.24v1.179Z" transform="translate(-41.271 -29.411)"/><path class="a" d="M70.782,42.283l-1.251-4.1H65.76l-1.2,4.1H63.15l3.735-12.691h1.5L72.25,42.283ZM67.628,31.695,66.1,36.844h3.1Z" transform="translate(-38.119 -29.411)"/><path class="a" d="M75.091,42.283V30.826H72.155V29.592h7.287v1.234H76.4V42.283Z" transform="translate(-34.399 -29.411)"/><path class="a" d="M81.07,42.283V29.592h6.055v1.251H82.374v3.952h3.172l-.415,1.269H82.374V41.1h4.714v1.179Z" transform="translate(-30.716 -29.411)"/></g></g></g></g></svg>